<?xml version="1.0" encoding="UTF-8" standalone="no"?>
<svg
   xmlns:dc="http://purl.org/dc/elements/1.1/"
   xmlns:cc="http://creativecommons.org/ns#"
   xmlns:rdf="http://www.w3.org/1999/02/22-rdf-syntax-ns#"
   xmlns:svg="http://www.w3.org/2000/svg"
   xmlns="http://www.w3.org/2000/svg"
   version="1.1"
   id="svg2"
   viewBox="0 0 354.3307 283.46457"
   height="80mm"
   width="100mm">
  <defs
     id="defs4" />
  <metadata
     id="metadata7">
    <rdf:RDF>
      <cc:Work
         rdf:about="">
        <dc:format>image/svg+xml</dc:format>
        <dc:type
           rdf:resource="http://purl.org/dc/dcmitype/StillImage" />
        <dc:title></dc:title>
      </cc:Work>
    </rdf:RDF>
  </metadata>
  <g
     transform="translate(0,-768.89764)"
     id="layer1">
    <g
       id="flowRoot3336-6"
       style="font-style:normal;font-weight:normal;font-size:40px;line-height:125%;font-family:sans-serif;letter-spacing:0px;word-spacing:0px;fill:#000000;fill-opacity:1;stroke:none;stroke-width:1px;stroke-linecap:butt;stroke-linejoin:miter;stroke-opacity:1"
       transform="translate(-20.21396,-202.06053)">
      <path
         id="path8203-6"
         d="m 182.91094,1187.3711 37.39842,0 0,-143.4459 -37.39842,0 0,143.4459 z"
         style="font-style:normal;font-variant:normal;font-weight:bold;font-stretch:normal;font-size:80px;line-height:125%;font-family:'Noto Sans CJK KR';-inkscape-font-specification:'Noto Sans CJK KR, Bold';text-align:start;letter-spacing:0px;word-spacing:0px;writing-mode:lr-tb;text-anchor:start;fill:#008080;fill-opacity:1;stroke:none;stroke-width:1px;stroke-linecap:butt;stroke-linejoin:miter;stroke-opacity:1" />
      <path
         id="path8208-2"
         d="m 200.32141,982.359 c -16.31829,0.5885 -28.01999,11.1046 -28.01999,26.7126 0,15.3965 12.38012,26.778 29.45,26.778 16.73522,0 29.1232,-11.3815 29.1232,-26.778 0,-5.043 -1.22362,-9.5545 -3.41571,-13.3766 l -27.1375,16.3919 0,-29.7279 z"
         style="font-style:normal;font-variant:normal;font-weight:bold;font-stretch:normal;font-size:80px;line-height:125%;font-family:'Noto Sans CJK KR';-inkscape-font-specification:'Noto Sans CJK KR, Bold';text-align:start;letter-spacing:0px;word-spacing:0px;writing-mode:lr-tb;text-anchor:start;fill:#008000;fill-opacity:1;stroke:none;stroke-width:1px;stroke-linecap:butt;stroke-linejoin:miter;stroke-opacity:1" />
      <path
         id="path3408-0-6"
         d="m 204.38263,982.408 0,22.4797 20.73926,-12.5185 c -4.72707,-5.7609 -12.03667,-9.3583 -20.73926,-9.9612 z"
         style="font-style:normal;font-variant:normal;font-weight:bold;font-stretch:normal;font-size:80px;line-height:125%;font-family:'Noto Sans CJK KR';-inkscape-font-specification:'Noto Sans CJK KR, Bold';text-align:start;letter-spacing:0px;word-spacing:0px;writing-mode:lr-tb;text-anchor:start;fill:#008080;fill-opacity:1;stroke:none;stroke-width:1px;stroke-linecap:butt;stroke-linejoin:miter;stroke-opacity:1" />
      <path
         id="path3406-9"
         style="font-style:normal;font-variant:normal;font-weight:bold;font-stretch:normal;font-size:80px;line-height:125%;font-family:'Noto Sans CJK KR';-inkscape-font-specification:'Noto Sans CJK KR, Bold';text-align:start;letter-spacing:0px;word-spacing:0px;writing-mode:lr-tb;text-anchor:start;fill:#008080;fill-opacity:1;stroke:none;stroke-width:1px;stroke-linecap:butt;stroke-linejoin:miter;stroke-opacity:1"
         d="m 37.69509,1243.6013 37.398402,0 0,-43.5461 -1.024614,-23.5661 c 11.014602,9.99 23.053822,15.6254 35.605342,15.6254 31.50688,0 60.96454,-28.4331 60.96454,-77.6145 0,-44.0585 -21.00459,-73.0038 -56.35378,-73.0038 -15.36921,0 -30.226115,8.1969 -42.26533,18.4431 l -1.024614,0 -2.561536,-14.857 -30.73841,0 0,198.519 z m 63.52606,-82.4814 c -7.684604,0 -16.906131,-2.8177 -26.127658,-10.7585 l 0,-63.0137 c 9.989988,-9.99 18.699207,-14.8569 28.433038,-14.8569 19.72382,0 28.43304,15.113 28.43304,42.5215 0,31.2507 -13.31998,46.1076 -30.73842,46.1076 z" />
      <path
         id="path3410-4"
         style="font-style:normal;font-variant:normal;font-weight:bold;font-stretch:normal;font-size:80px;line-height:125%;font-family:'Noto Sans CJK KR';-inkscape-font-specification:'Noto Sans CJK KR, Bold';text-align:start;letter-spacing:0px;word-spacing:0px;writing-mode:lr-tb;text-anchor:start;fill:#008080;fill-opacity:1;stroke:none;stroke-width:1px;stroke-linecap:butt;stroke-linejoin:miter;stroke-opacity:1"
         d="m 304.09998,1191.8263 c 17.93074,0 36.11764,-6.1477 50.20609,-15.8815 l -12.80768,-23.0538 c -10.24614,6.4038 -20.49228,9.99 -32.27534,9.99 -21.26075,0 -36.62996,-12.2954 -39.7038,-35.8615 l 88.37297,0 c 1.02461,-3.33 1.79307,-10.2462 1.79307,-17.1623 0,-39.7038 -20.49228,-68.6492 -59.93992,-68.6492 -34.32458,0 -66.85607,28.9454 -66.85607,75.5653 0,47.1323 31.25073,75.053 71.21068,75.053 z m -35.09304,-89.6537 c 2.81769,-21.0046 16.13768,-31.7631 31.25073,-31.7631 18.44306,0 27.15228,12.2954 27.15228,31.7631 l -58.40301,0 z" />
    </g>
  </g>
</svg>
